<?xml version="1.0" standalone="no"?>
<!DOCTYPE svg PUBLIC "-//W3C//DTD SVG 20010904//EN"
 "http://www.w3.org/TR/2001/REC-SVG-20010904/DTD/svg10.dtd">
<svg version="1.0" xmlns="http://www.w3.org/2000/svg"
 width="890.000000pt" height="1280.000000pt" viewBox="0 0 890.000000 1280.000000"
 preserveAspectRatio="xMidYMid meet">
<g transform="translate(0.000000,1280.000000) scale(0.100000,-0.100000)"
fill="#000000" stroke="none">
<path d="M4065 12790 c-38 -5 -123 -13 -188 -19 -603 -57 -1220 -293 -1762
-675 -176 -124 -345 -266 -523 -441 -237 -232 -412 -438 -597 -705 -525 -759
-891 -1862 -965 -2905 -6 -88 -15 -213 -20 -277 -13 -149 -13 -308 0 -456 5
-64 14 -187 20 -272 16 -214 54 -507 96 -729 263 -1397 958 -2632 1969 -3496
610 -523 1358 -846 2172 -941 181 -22 614 -24 778 -5 620 71 1079 241 1625
599 701 461 1293 1167 1669 1990 350 764 531 1589 558 2532 11 374 -49 979
-142 1445 -276 1374 -987 2607 -1961 3397 -674 547 -1389 859 -2154 938 -58 6
-141 15 -185 20 -92 11 -288 11 -390 0z m583 -2295 c626 -130 1227 -590 1616
-1234 413 -682 602 -1579 510 -2415 -94 -858 -476 -1626 -1040 -2095 -593
-492 -1562 -521 -2244 -66 -220 146 -532 466 -733 752 -585 831 -801 1994
-563 3040 106 466 319 926 586 1263 84 106 299 315 403 394 237 177 488 298
737 355 151 35 213 40 415 36 155 -3 213 -9 313 -30z"/>
</g>
</svg>
